<svg width="20" height="20" viewBox="0 0 20 20" fill="none" xmlns="http://www.w3.org/2000/svg">
<path d="M10 0C4.4775 0 0 4.4775 0 10C0 15.5225 4.4775 20 10 20C15.5225 20 20 15.5225 20 10C20 4.4775 15.5225 0 10 0ZM10 15.2083C9.425 15.2083 8.95833 14.7417 8.95833 14.1667C8.95833 13.5917 9.425 13.125 10 13.125C10.5758 13.125 11.0417 13.5917 11.0417 14.1667C11.0417 14.7417 10.5758 15.2083 10 15.2083ZM11.6342 10.2683C10.8808 11.0808 10.845 11.53 10.855 12.0833H9.18417C9.17833 10.8542 9.20083 10.3125 10.3767 9.19333C10.8542 8.74 11.2308 8.38083 11.1783 7.67583C11.13 7.005 10.57 6.65417 10.0408 6.65417C9.45 6.65417 8.75917 7.09333 8.75917 8.33167H7.08417C7.08417 6.33167 8.25833 5.04 10.0758 5.04C10.9392 5.04 11.6942 5.3225 12.2008 5.83583C12.6758 6.3175 12.9217 6.97917 12.9125 7.75083C12.8992 8.90333 12.1983 9.66 11.6342 10.2683Z" fill="#686868"/>
</svg>
