<svg width="16" height="20" viewBox="0 0 16 20" fill="none" xmlns="http://www.w3.org/2000/svg">
<path fill-rule="evenodd" clip-rule="evenodd" d="M13.6 20H2.4C1.5168 20 0.8 19.2533 0.8 18.3333V5H15.2V18.3333C15.2 19.2533 14.4832 20 13.6 20ZM6.4 8.33333C6.4 7.87333 6.0416 7.5 5.6 7.5C5.1584 7.5 4.8 7.87333 4.8 8.33333V15.8333C4.8 16.2933 5.1584 16.6667 5.6 16.6667C6.0416 16.6667 6.4 16.2933 6.4 15.8333V8.33333ZM11.2 8.33333C11.2 7.87333 10.8416 7.5 10.4 7.5C9.9584 7.5 9.6 7.87333 9.6 8.33333V15.8333C9.6 16.2933 9.9584 16.6667 10.4 16.6667C10.8416 16.6667 11.2 16.2933 11.2 15.8333V8.33333ZM16 4.16667H0V2.5H4.8V1.25C4.8 0.560833 5.3384 0 6 0H10C10.66 0 11.2 0.559167 11.2 1.25V2.5H16V4.16667ZM6.4 2.5H9.6V1.66667H6.4V2.5Z" fill="#696969"/>
</svg>
