<svg width="22" height="20" viewBox="0 0 22 20" fill="none" xmlns="http://www.w3.org/2000/svg">
<path d="M18.332 7.59238C18.332 3.18167 13.9781 0 9.16598 0C4.32543 0 0 3.20622 0 7.59238C0 9.14686 0.563708 10.6741 1.5628 11.8604C1.60588 13.2485 0.783692 15.2411 0.0412469 16.6892C2.02843 16.3338 4.85522 15.5457 6.13479 14.7666C13.1908 16.4729 18.332 12.1831 18.332 7.59238ZM5.04129 8.84778C4.40976 8.84778 3.89554 8.33871 3.89554 7.71147C3.89554 7.08422 4.40976 6.57516 5.04129 6.57516C5.67283 6.57516 6.18704 7.08422 6.18704 7.71147C6.18704 8.33871 5.67283 8.84778 5.04129 8.84778ZM9.16598 8.84778C8.53445 8.84778 8.02024 8.33871 8.02024 7.71147C8.02024 7.08422 8.53445 6.57516 9.16598 6.57516C9.79752 6.57516 10.3117 7.08422 10.3117 7.71147C10.3117 8.33871 9.79752 8.84778 9.16598 8.84778ZM13.2907 8.84778C12.6591 8.84778 12.1449 8.33871 12.1449 7.71147C12.1449 7.08422 12.6591 6.57516 13.2907 6.57516C13.9222 6.57516 14.4364 7.08422 14.4364 7.71147C14.4364 8.33871 13.9222 8.84778 13.2907 8.84778ZM19.7399 10.1577C19.5923 10.6013 19.409 11.0313 19.189 11.4449C20.7261 12.5922 21.2578 14.3775 19.6143 16.322C19.595 16.9992 19.5694 17.2756 19.7408 18.0174C18.9232 17.7383 18.8434 17.661 18.2146 17.2783C16.265 17.7501 14.3054 17.911 12.6335 16.5011C12.1183 16.6456 11.584 16.7538 11.0386 16.832C12.4254 18.5382 14.9781 19.4655 17.9837 18.741C18.8214 19.2509 20.672 19.7655 21.9727 20C21.4869 19.05 20.9489 17.7465 20.9754 16.8374C22.5841 14.9302 22.3897 11.8958 19.7399 10.1577Z" fill="#686868"/>
</svg>
