<svg width="22" height="22" viewBox="0 0 22 22" fill="none" xmlns="http://www.w3.org/2000/svg">
<path d="M10.9995 0C17.0708 0 22 4.92923 22 11.0006C22 17.0708 17.0708 22 10.9995 22C4.92923 22 0 17.0708 0 11.0006C0 4.92923 4.92923 0 10.9995 0ZM10.1775 10.1775H6.32658C5.87107 10.1775 5.50138 10.5472 5.50138 11.0028C5.50138 11.4583 5.87107 11.828 6.32658 11.828H10.1775V15.6789C10.1775 16.1344 10.5472 16.5041 11.0028 16.5041C11.4583 16.5041 11.828 16.1344 11.828 15.6789V11.828H15.6789C16.1344 11.828 16.5041 11.4583 16.5041 11.0028C16.5041 10.5472 16.1344 10.1775 15.6789 10.1775H11.828V6.32658C11.828 5.87107 11.4583 5.50138 11.0028 5.50138C10.5472 5.50138 10.1775 5.87107 10.1775 6.32658V10.1775Z" fill="black"/>
</svg>
